<svg width="17" height="17" viewBox="0 0 17 17" fill="none" xmlns="http://www.w3.org/2000/svg">
<path fill-rule="evenodd" clip-rule="evenodd" d="M2.24941 8.97239C2.11834 5.41593 4.6499 2.25001 7.99992 2.25001C9.86829 2.25001 11.0513 2.71333 11.8811 3.43944C12.4959 3.97733 12.9651 4.70055 13.3613 5.60987L10.3006 4.60937C9.90686 4.48067 9.48336 4.6955 9.35466 5.08921C9.22596 5.48293 9.4408 5.90642 9.83451 6.03512L13.5604 7.25308C14.5445 7.57477 15.5913 6.97644 15.8134 5.96522L16.6492 2.16094C16.7381 1.75637 16.4822 1.35635 16.0776 1.26747C15.6731 1.17859 15.273 1.4345 15.1842 1.83906L14.5683 4.64243C14.1395 3.7486 13.5994 2.94977 12.8689 2.31057C11.6987 1.28669 10.1317 0.750012 7.99992 0.750012C3.59827 0.750012 0.596011 4.83766 0.750432 9.02764C0.908276 13.3105 4.25361 16.3752 8.52205 16.2497C11.6563 16.1575 13.5291 14.5445 15.1 12.45C15.3485 12.1186 15.2814 11.6485 14.95 11.4C14.6186 11.1515 14.1485 11.2186 13.9 11.55C12.4709 13.4555 10.9735 14.6769 8.47795 14.7503C5.01775 14.8521 2.37634 12.4163 2.24941 8.97239Z" fill="#cacaca"/>
</svg>
